<mxfile host="app.diagrams.net" agent="Mozilla/5.0 (Windows NT 10.0; Win64; x64) AppleWebKit/537.36 (KHTML, like Gecko) Chrome/129.0.0.0 Safari/537.36" version="24.7.17">
  <diagram name="Page-1" id="n82w6MC7N7ybh6Wak7Xi">
    <mxGraphModel dx="1833" dy="772" grid="1" gridSize="10" guides="1" tooltips="1" connect="1" arrows="1" fold="1" page="0" pageScale="1" pageWidth="827" pageHeight="1169" math="0" shadow="0">
      <root>
        <mxCell id="0" />
        <mxCell id="1" parent="0" />
        <mxCell id="Ws1gLKhcjA2NSecggDod-20" value="" style="rounded=0;whiteSpace=wrap;html=1;" vertex="1" parent="1">
          <mxGeometry x="200" y="160" width="400" height="190" as="geometry" />
        </mxCell>
        <mxCell id="Ws1gLKhcjA2NSecggDod-24" style="edgeStyle=orthogonalEdgeStyle;rounded=0;orthogonalLoop=1;jettySize=auto;html=1;entryX=0.5;entryY=1;entryDx=0;entryDy=0;" edge="1" parent="1" source="Ws1gLKhcjA2NSecggDod-19" target="Ws1gLKhcjA2NSecggDod-20">
          <mxGeometry relative="1" as="geometry" />
        </mxCell>
        <mxCell id="Ws1gLKhcjA2NSecggDod-19" value="" style="rounded=0;whiteSpace=wrap;html=1;" vertex="1" parent="1">
          <mxGeometry x="200" y="400" width="400" height="230" as="geometry" />
        </mxCell>
        <mxCell id="kDkyR3wlVVw4IRGfqUSK-2" value="VPC" style="points=[[0,0],[0.25,0],[0.5,0],[0.75,0],[1,0],[1,0.25],[1,0.5],[1,0.75],[1,1],[0.75,1],[0.5,1],[0.25,1],[0,1],[0,0.75],[0,0.5],[0,0.25]];outlineConnect=0;gradientColor=none;html=1;whiteSpace=wrap;fontSize=12;fontStyle=0;container=1;pointerEvents=0;collapsible=0;recursiveResize=0;shape=mxgraph.aws4.group;grIcon=mxgraph.aws4.group_vpc2;strokeColor=#8C4FFF;fillColor=none;verticalAlign=top;align=left;spacingLeft=30;fontColor=#AAB7B8;dashed=0;" parent="1" vertex="1">
          <mxGeometry x="-250" y="780" width="280" height="280" as="geometry" />
        </mxCell>
        <mxCell id="kDkyR3wlVVw4IRGfqUSK-3" value="Public subnet" style="points=[[0,0],[0.25,0],[0.5,0],[0.75,0],[1,0],[1,0.25],[1,0.5],[1,0.75],[1,1],[0.75,1],[0.5,1],[0.25,1],[0,1],[0,0.75],[0,0.5],[0,0.25]];outlineConnect=0;gradientColor=none;html=1;whiteSpace=wrap;fontSize=12;fontStyle=0;container=1;pointerEvents=0;collapsible=0;recursiveResize=0;shape=mxgraph.aws4.group;grIcon=mxgraph.aws4.group_security_group;grStroke=0;strokeColor=#7AA116;fillColor=#F2F6E8;verticalAlign=top;align=left;spacingLeft=30;fontColor=#248814;dashed=0;" parent="kDkyR3wlVVw4IRGfqUSK-2" vertex="1">
          <mxGeometry x="30" y="40" width="80" height="80" as="geometry" />
        </mxCell>
        <mxCell id="kDkyR3wlVVw4IRGfqUSK-4" value="Private subnet" style="points=[[0,0],[0.25,0],[0.5,0],[0.75,0],[1,0],[1,0.25],[1,0.5],[1,0.75],[1,1],[0.75,1],[0.5,1],[0.25,1],[0,1],[0,0.75],[0,0.5],[0,0.25]];outlineConnect=0;gradientColor=none;html=1;whiteSpace=wrap;fontSize=12;fontStyle=0;container=1;pointerEvents=0;collapsible=0;recursiveResize=0;shape=mxgraph.aws4.group;grIcon=mxgraph.aws4.group_security_group;grStroke=0;strokeColor=#00A4A6;fillColor=#E6F6F7;verticalAlign=top;align=left;spacingLeft=30;fontColor=#147EBA;dashed=0;" parent="kDkyR3wlVVw4IRGfqUSK-2" vertex="1">
          <mxGeometry x="130" y="40" width="90" height="80" as="geometry" />
        </mxCell>
        <mxCell id="Ws1gLKhcjA2NSecggDod-2" style="edgeStyle=orthogonalEdgeStyle;rounded=0;orthogonalLoop=1;jettySize=auto;html=1;" edge="1" parent="kDkyR3wlVVw4IRGfqUSK-2" target="kDkyR3wlVVw4IRGfqUSK-3">
          <mxGeometry relative="1" as="geometry">
            <mxPoint x="70" y="150" as="sourcePoint" />
          </mxGeometry>
        </mxCell>
        <mxCell id="Ws1gLKhcjA2NSecggDod-15" value="Internet&#xa;gateway" style="sketch=0;outlineConnect=0;fontColor=#232F3E;gradientColor=none;strokeColor=#232F3E;fillColor=#ffffff;dashed=0;verticalLabelPosition=bottom;verticalAlign=top;align=center;html=1;fontSize=12;fontStyle=0;aspect=fixed;shape=mxgraph.aws4.resourceIcon;resIcon=mxgraph.aws4.internet_gateway;" vertex="1" parent="kDkyR3wlVVw4IRGfqUSK-2">
          <mxGeometry x="40" y="150" width="60" height="60" as="geometry" />
        </mxCell>
        <mxCell id="Ws1gLKhcjA2NSecggDod-18" style="edgeStyle=orthogonalEdgeStyle;rounded=0;orthogonalLoop=1;jettySize=auto;html=1;" edge="1" parent="kDkyR3wlVVw4IRGfqUSK-2" source="Ws1gLKhcjA2NSecggDod-17" target="kDkyR3wlVVw4IRGfqUSK-4">
          <mxGeometry relative="1" as="geometry" />
        </mxCell>
        <mxCell id="Ws1gLKhcjA2NSecggDod-17" value="NAT gateway" style="sketch=0;outlineConnect=0;fontColor=#232F3E;gradientColor=none;strokeColor=#232F3E;fillColor=#ffffff;dashed=0;verticalLabelPosition=bottom;verticalAlign=top;align=center;html=1;fontSize=12;fontStyle=0;aspect=fixed;shape=mxgraph.aws4.resourceIcon;resIcon=mxgraph.aws4.nat_gateway;" vertex="1" parent="kDkyR3wlVVw4IRGfqUSK-2">
          <mxGeometry x="145" y="150" width="60" height="60" as="geometry" />
        </mxCell>
        <mxCell id="Ws1gLKhcjA2NSecggDod-11" value="Amazon EKS" style="sketch=0;outlineConnect=0;fontColor=#232F3E;gradientColor=none;strokeColor=#ffffff;fillColor=#232F3E;dashed=0;verticalLabelPosition=middle;verticalAlign=bottom;align=center;html=1;whiteSpace=wrap;fontSize=10;fontStyle=1;spacing=3;shape=mxgraph.aws4.productIcon;prIcon=mxgraph.aws4.eks;" vertex="1" parent="1">
          <mxGeometry x="200" y="400" width="70" height="90" as="geometry" />
        </mxCell>
        <mxCell id="Ws1gLKhcjA2NSecggDod-12" value="Application Load Balancer" style="sketch=0;outlineConnect=0;fontColor=#232F3E;gradientColor=none;strokeColor=#ffffff;fillColor=#232F3E;dashed=0;verticalLabelPosition=middle;verticalAlign=bottom;align=center;html=1;whiteSpace=wrap;fontSize=10;fontStyle=1;spacing=3;shape=mxgraph.aws4.productIcon;prIcon=mxgraph.aws4.application_load_balancer;" vertex="1" parent="1">
          <mxGeometry x="610" y="1040" width="80" height="110" as="geometry" />
        </mxCell>
        <mxCell id="Ws1gLKhcjA2NSecggDod-13" value="Amazon Cloudfront" style="sketch=0;outlineConnect=0;fontColor=#232F3E;gradientColor=none;strokeColor=#ffffff;fillColor=#232F3E;dashed=0;verticalLabelPosition=middle;verticalAlign=bottom;align=center;html=1;whiteSpace=wrap;fontSize=10;fontStyle=1;spacing=3;shape=mxgraph.aws4.productIcon;prIcon=mxgraph.aws4.cloudfront;" vertex="1" parent="1">
          <mxGeometry x="500" y="225" width="80" height="110" as="geometry" />
        </mxCell>
        <mxCell id="Ws1gLKhcjA2NSecggDod-22" style="edgeStyle=orthogonalEdgeStyle;rounded=0;orthogonalLoop=1;jettySize=auto;html=1;" edge="1" parent="1" source="Ws1gLKhcjA2NSecggDod-14" target="Ws1gLKhcjA2NSecggDod-13">
          <mxGeometry relative="1" as="geometry" />
        </mxCell>
        <mxCell id="Ws1gLKhcjA2NSecggDod-14" value="Amazon S3" style="sketch=0;outlineConnect=0;fontColor=#232F3E;gradientColor=none;strokeColor=#ffffff;fillColor=#232F3E;dashed=0;verticalLabelPosition=middle;verticalAlign=bottom;align=center;html=1;whiteSpace=wrap;fontSize=10;fontStyle=1;spacing=3;shape=mxgraph.aws4.productIcon;prIcon=mxgraph.aws4.s3;" vertex="1" parent="1">
          <mxGeometry x="220" y="230" width="80" height="100" as="geometry" />
        </mxCell>
        <mxCell id="Ws1gLKhcjA2NSecggDod-16" value="AWS Secrets Manager" style="sketch=0;outlineConnect=0;fontColor=#232F3E;gradientColor=none;strokeColor=#ffffff;fillColor=#232F3E;dashed=0;verticalLabelPosition=middle;verticalAlign=bottom;align=center;html=1;whiteSpace=wrap;fontSize=10;fontStyle=1;spacing=3;shape=mxgraph.aws4.productIcon;prIcon=mxgraph.aws4.secrets_manager;" vertex="1" parent="1">
          <mxGeometry x="70" y="490" width="70" height="100" as="geometry" />
        </mxCell>
        <mxCell id="Ws1gLKhcjA2NSecggDod-21" value="React Front-End: Static Website with Global Distribution (Low Latency)" style="text;html=1;align=center;verticalAlign=middle;whiteSpace=wrap;rounded=0;" vertex="1" parent="1">
          <mxGeometry x="195" y="160" width="410" height="30" as="geometry" />
        </mxCell>
        <mxCell id="Ws1gLKhcjA2NSecggDod-23" value="EKS Cluster with Node.js&amp;nbsp;Microservices: (Scalability and Auto-scaling enabled)" style="text;html=1;align=center;verticalAlign=middle;whiteSpace=wrap;rounded=0;" vertex="1" parent="1">
          <mxGeometry x="300" y="410" width="220" height="30" as="geometry" />
        </mxCell>
        <mxCell id="Ws1gLKhcjA2NSecggDod-25" value="" style="aspect=fixed;sketch=0;html=1;dashed=0;whitespace=wrap;verticalLabelPosition=bottom;verticalAlign=top;fillColor=#2875E2;strokeColor=#ffffff;points=[[0.005,0.63,0],[0.1,0.2,0],[0.9,0.2,0],[0.5,0,0],[0.995,0.63,0],[0.72,0.99,0],[0.5,1,0],[0.28,0.99,0]];shape=mxgraph.kubernetes.icon2;kubernetesLabel=1;prIcon=pod" vertex="1" parent="1">
          <mxGeometry x="235" y="490" width="50" height="48" as="geometry" />
        </mxCell>
        <mxCell id="Ws1gLKhcjA2NSecggDod-26" value="" style="aspect=fixed;sketch=0;html=1;dashed=0;whitespace=wrap;verticalLabelPosition=bottom;verticalAlign=top;fillColor=#2875E2;strokeColor=#ffffff;points=[[0.005,0.63,0],[0.1,0.2,0],[0.9,0.2,0],[0.5,0,0],[0.995,0.63,0],[0.72,0.99,0],[0.5,1,0],[0.28,0.99,0]];shape=mxgraph.kubernetes.icon2;kubernetesLabel=1;prIcon=pod" vertex="1" parent="1">
          <mxGeometry x="375" y="490" width="50" height="48" as="geometry" />
        </mxCell>
        <mxCell id="Ws1gLKhcjA2NSecggDod-27" value="" style="aspect=fixed;sketch=0;html=1;dashed=0;whitespace=wrap;verticalLabelPosition=bottom;verticalAlign=top;fillColor=#2875E2;strokeColor=#ffffff;points=[[0.005,0.63,0],[0.1,0.2,0],[0.9,0.2,0],[0.5,0,0],[0.995,0.63,0],[0.72,0.99,0],[0.5,1,0],[0.28,0.99,0]];shape=mxgraph.kubernetes.icon2;kubernetesLabel=1;prIcon=pod" vertex="1" parent="1">
          <mxGeometry x="510" y="490" width="50" height="48" as="geometry" />
        </mxCell>
        <mxCell id="Ws1gLKhcjA2NSecggDod-28" value="compute optimized" style="text;html=1;align=center;verticalAlign=middle;whiteSpace=wrap;rounded=0;" vertex="1" parent="1">
          <mxGeometry x="225" y="550" width="70" height="30" as="geometry" />
        </mxCell>
        <mxCell id="Ws1gLKhcjA2NSecggDod-29" value="memory optimized" style="text;html=1;align=center;verticalAlign=middle;whiteSpace=wrap;rounded=0;" vertex="1" parent="1">
          <mxGeometry x="365" y="550" width="70" height="30" as="geometry" />
        </mxCell>
        <mxCell id="Ws1gLKhcjA2NSecggDod-30" value="storage optimized" style="text;html=1;align=center;verticalAlign=middle;whiteSpace=wrap;rounded=0;" vertex="1" parent="1">
          <mxGeometry x="505" y="550" width="70" height="30" as="geometry" />
        </mxCell>
      </root>
    </mxGraphModel>
  </diagram>
</mxfile>
